# xmcd
# Copyright (C) 1995-1998 Ti Kan
#
# Track frame offsets:
#       150
#       18256
#       34809
#       55468
#       69453
#
# Disc length: 1185 seconds
#
# Revision: 0
# Processed by: cddbd v1.5.1PL0 Copyright (c) Steve Scherf et al.
# Submitted via: CD-Transfer v1.0
#
DISCID=3d049f05
DTITLE=Girl In A Band - 
DYEAR=2004
DGENRE=
TTITLE0=Yellow Glasses
TTITLE1=Why Should I
TTITLE2=Sway Forever
TTITLE3=Don't Talk
TTITLE4=No Mercy
EXTD=
EXTT0=
EXTT1=
EXTT2=
EXTT3=
EXTT4=
PLAYORDER=
